<mxfile host="app.diagrams.net" modified="2023-05-24T22:09:50.456Z" agent="Mozilla/5.0 (Windows NT 10.0; Win64; x64) AppleWebKit/537.36 (KHTML, like Gecko) Chrome/113.0.0.0 Safari/537.36 Edg/113.0.1774.50" etag="jR-h1NV5Zp38QrHjZ1g1" version="21.3.2" type="device">
  <diagram id="R2lEEEUBdFMjLlhIrx00" name="Page-1">
    <mxGraphModel dx="1687" dy="899" grid="1" gridSize="10" guides="1" tooltips="1" connect="1" arrows="1" fold="1" page="1" pageScale="1" pageWidth="850" pageHeight="1100" math="0" shadow="0" extFonts="Permanent Marker^https://fonts.googleapis.com/css?family=Permanent+Marker">
      <root>
        <mxCell id="0" />
        <mxCell id="1" parent="0" />
        <mxCell id="DiLmOGWspINHebZNxaiX-3" value="TIENDA DE MUSICA" style="rounded=0;whiteSpace=wrap;html=1;" vertex="1" parent="1">
          <mxGeometry x="670" y="70" width="140" height="60" as="geometry" />
        </mxCell>
        <mxCell id="DiLmOGWspINHebZNxaiX-4" value="CLIENTE" style="rounded=0;whiteSpace=wrap;html=1;" vertex="1" parent="1">
          <mxGeometry x="1120" y="270" width="140" height="60" as="geometry" />
        </mxCell>
        <mxCell id="DiLmOGWspINHebZNxaiX-5" value="DISCOS" style="rounded=0;whiteSpace=wrap;html=1;" vertex="1" parent="1">
          <mxGeometry x="199.99999999999997" y="270" width="140" height="60" as="geometry" />
        </mxCell>
        <mxCell id="DiLmOGWspINHebZNxaiX-6" value="COMPRAR" style="rhombus;whiteSpace=wrap;html=1;" vertex="1" parent="1">
          <mxGeometry x="676.27" y="260" width="80" height="80" as="geometry" />
        </mxCell>
        <mxCell id="DiLmOGWspINHebZNxaiX-13" value="" style="endArrow=none;html=1;rounded=0;entryX=0;entryY=0.5;entryDx=0;entryDy=0;exitX=1;exitY=0.5;exitDx=0;exitDy=0;" edge="1" parent="1" source="DiLmOGWspINHebZNxaiX-5" target="DiLmOGWspINHebZNxaiX-6">
          <mxGeometry width="50" height="50" relative="1" as="geometry">
            <mxPoint x="506.27" y="440" as="sourcePoint" />
            <mxPoint x="556.27" y="390" as="targetPoint" />
          </mxGeometry>
        </mxCell>
        <mxCell id="DiLmOGWspINHebZNxaiX-15" value="" style="endArrow=none;html=1;rounded=0;entryX=0.879;entryY=1.063;entryDx=0;entryDy=0;entryPerimeter=0;" edge="1" parent="1" target="DiLmOGWspINHebZNxaiX-5">
          <mxGeometry width="50" height="50" relative="1" as="geometry">
            <mxPoint x="381.64050159637463" y="384.1825859907226" as="sourcePoint" />
            <mxPoint x="330" y="390" as="targetPoint" />
          </mxGeometry>
        </mxCell>
        <mxCell id="DiLmOGWspINHebZNxaiX-16" value="Titulo" style="ellipse;whiteSpace=wrap;html=1;" vertex="1" parent="1">
          <mxGeometry x="376.27" y="370" width="60" height="40" as="geometry" />
        </mxCell>
        <mxCell id="DiLmOGWspINHebZNxaiX-17" value="Artista" style="ellipse;whiteSpace=wrap;html=1;" vertex="1" parent="1">
          <mxGeometry x="330" y="450" width="60" height="40" as="geometry" />
        </mxCell>
        <mxCell id="DiLmOGWspINHebZNxaiX-19" value="AÃ±o de&lt;br&gt;&amp;nbsp;lanzamiento" style="ellipse;whiteSpace=wrap;html=1;" vertex="1" parent="1">
          <mxGeometry x="209.99999999999997" y="470" width="80" height="40" as="geometry" />
        </mxCell>
        <mxCell id="DiLmOGWspINHebZNxaiX-20" value="PRECIO" style="ellipse;whiteSpace=wrap;html=1;dashed=1;" vertex="1" parent="1">
          <mxGeometry x="129.99999999999997" y="420" width="70" height="40" as="geometry" />
        </mxCell>
        <mxCell id="DiLmOGWspINHebZNxaiX-21" value="" style="endArrow=none;html=1;rounded=0;exitX=0.339;exitY=0.021;exitDx=0;exitDy=0;exitPerimeter=0;" edge="1" parent="1">
          <mxGeometry width="50" height="50" relative="1" as="geometry">
            <mxPoint x="163.73" y="420.8399999999999" as="sourcePoint" />
            <mxPoint x="229.99999999999997" y="330" as="targetPoint" />
          </mxGeometry>
        </mxCell>
        <mxCell id="DiLmOGWspINHebZNxaiX-22" value="" style="endArrow=none;html=1;rounded=0;exitX=0.75;exitY=1;exitDx=0;exitDy=0;entryX=0.5;entryY=0;entryDx=0;entryDy=0;" edge="1" parent="1" source="DiLmOGWspINHebZNxaiX-5" target="DiLmOGWspINHebZNxaiX-17">
          <mxGeometry width="50" height="50" relative="1" as="geometry">
            <mxPoint x="330" y="440" as="sourcePoint" />
            <mxPoint x="380" y="390" as="targetPoint" />
          </mxGeometry>
        </mxCell>
        <mxCell id="DiLmOGWspINHebZNxaiX-23" value="" style="endArrow=none;html=1;rounded=0;exitX=0.75;exitY=1;exitDx=0;exitDy=0;entryX=0.268;entryY=0.035;entryDx=0;entryDy=0;entryPerimeter=0;" edge="1" parent="1">
          <mxGeometry width="50" height="50" relative="1" as="geometry">
            <mxPoint x="260" y="330" as="sourcePoint" />
            <mxPoint x="241.44000000000003" y="471.39999999999986" as="targetPoint" />
          </mxGeometry>
        </mxCell>
        <mxCell id="DiLmOGWspINHebZNxaiX-24" value="&lt;u&gt;ID (PK)&lt;/u&gt;" style="ellipse;whiteSpace=wrap;html=1;" vertex="1" parent="1">
          <mxGeometry x="260" y="390" width="60" height="40" as="geometry" />
        </mxCell>
        <mxCell id="DiLmOGWspINHebZNxaiX-25" value="" style="endArrow=none;html=1;rounded=0;entryX=0.556;entryY=0.984;entryDx=0;entryDy=0;entryPerimeter=0;exitX=0.5;exitY=0;exitDx=0;exitDy=0;" edge="1" parent="1" source="DiLmOGWspINHebZNxaiX-24" target="DiLmOGWspINHebZNxaiX-5">
          <mxGeometry width="50" height="50" relative="1" as="geometry">
            <mxPoint x="330" y="440" as="sourcePoint" />
            <mxPoint x="380" y="390" as="targetPoint" />
          </mxGeometry>
        </mxCell>
        <mxCell id="DiLmOGWspINHebZNxaiX-26" value="" style="endArrow=none;html=1;rounded=0;entryX=0;entryY=0.5;entryDx=0;entryDy=0;exitX=1;exitY=0.5;exitDx=0;exitDy=0;" edge="1" parent="1" source="DiLmOGWspINHebZNxaiX-6" target="DiLmOGWspINHebZNxaiX-4">
          <mxGeometry width="50" height="50" relative="1" as="geometry">
            <mxPoint x="696.27" y="440" as="sourcePoint" />
            <mxPoint x="746.27" y="390" as="targetPoint" />
          </mxGeometry>
        </mxCell>
        <mxCell id="DiLmOGWspINHebZNxaiX-27" value="&lt;u&gt;ID (PK)&lt;/u&gt;" style="ellipse;whiteSpace=wrap;html=1;" vertex="1" parent="1">
          <mxGeometry x="1340" y="370" width="60" height="40" as="geometry" />
        </mxCell>
        <mxCell id="DiLmOGWspINHebZNxaiX-28" value="&lt;u&gt;ID (PK)&lt;/u&gt;" style="ellipse;whiteSpace=wrap;html=1;" vertex="1" parent="1">
          <mxGeometry x="800" y="360" width="60" height="40" as="geometry" />
        </mxCell>
        <mxCell id="DiLmOGWspINHebZNxaiX-29" value="" style="endArrow=none;html=1;rounded=0;entryX=1;entryY=1;entryDx=0;entryDy=0;exitX=0.325;exitY=0.025;exitDx=0;exitDy=0;exitPerimeter=0;" edge="1" parent="1" source="DiLmOGWspINHebZNxaiX-27" target="DiLmOGWspINHebZNxaiX-4">
          <mxGeometry width="50" height="50" relative="1" as="geometry">
            <mxPoint x="1318.6405015963746" y="340.0025859907226" as="sourcePoint" />
            <mxPoint x="1260" y="289.82" as="targetPoint" />
          </mxGeometry>
        </mxCell>
        <mxCell id="DiLmOGWspINHebZNxaiX-30" value="Nombre" style="ellipse;whiteSpace=wrap;html=1;" vertex="1" parent="1">
          <mxGeometry x="1260" y="420" width="60" height="40" as="geometry" />
        </mxCell>
        <mxCell id="DiLmOGWspINHebZNxaiX-31" value="" style="endArrow=none;html=1;rounded=0;entryX=0.879;entryY=1.063;entryDx=0;entryDy=0;entryPerimeter=0;exitX=0.5;exitY=0;exitDx=0;exitDy=0;" edge="1" parent="1" source="DiLmOGWspINHebZNxaiX-30">
          <mxGeometry width="50" height="50" relative="1" as="geometry">
            <mxPoint x="1299" y="420" as="sourcePoint" />
            <mxPoint x="1230" y="328.82" as="targetPoint" />
          </mxGeometry>
        </mxCell>
        <mxCell id="DiLmOGWspINHebZNxaiX-32" value="Direccion" style="ellipse;whiteSpace=wrap;html=1;" vertex="1" parent="1">
          <mxGeometry x="1180" y="430" width="60" height="40" as="geometry" />
        </mxCell>
        <mxCell id="DiLmOGWspINHebZNxaiX-33" value="Telefono" style="ellipse;whiteSpace=wrap;html=1;" vertex="1" parent="1">
          <mxGeometry x="1090" y="430" width="60" height="40" as="geometry" />
        </mxCell>
        <mxCell id="DiLmOGWspINHebZNxaiX-34" value="Email" style="ellipse;whiteSpace=wrap;html=1;" vertex="1" parent="1">
          <mxGeometry x="1050" y="370" width="60" height="40" as="geometry" />
        </mxCell>
        <mxCell id="DiLmOGWspINHebZNxaiX-35" value="" style="endArrow=none;html=1;rounded=0;entryX=0.056;entryY=1.024;entryDx=0;entryDy=0;entryPerimeter=0;exitX=0.5;exitY=0;exitDx=0;exitDy=0;" edge="1" parent="1" source="DiLmOGWspINHebZNxaiX-34" target="DiLmOGWspINHebZNxaiX-4">
          <mxGeometry width="50" height="50" relative="1" as="geometry">
            <mxPoint x="1130" y="571.1800000000001" as="sourcePoint" />
            <mxPoint x="1070" y="480" as="targetPoint" />
          </mxGeometry>
        </mxCell>
        <mxCell id="DiLmOGWspINHebZNxaiX-36" value="" style="endArrow=none;html=1;rounded=0;entryX=0.367;entryY=1.063;entryDx=0;entryDy=0;entryPerimeter=0;exitX=0.5;exitY=0;exitDx=0;exitDy=0;" edge="1" parent="1" source="DiLmOGWspINHebZNxaiX-33" target="DiLmOGWspINHebZNxaiX-4">
          <mxGeometry width="50" height="50" relative="1" as="geometry">
            <mxPoint x="1180" y="435.59" as="sourcePoint" />
            <mxPoint x="1120" y="344.40999999999997" as="targetPoint" />
          </mxGeometry>
        </mxCell>
        <mxCell id="DiLmOGWspINHebZNxaiX-37" value="" style="endArrow=none;html=1;rounded=0;entryX=0.5;entryY=1;entryDx=0;entryDy=0;" edge="1" parent="1" source="DiLmOGWspINHebZNxaiX-32" target="DiLmOGWspINHebZNxaiX-4">
          <mxGeometry width="50" height="50" relative="1" as="geometry">
            <mxPoint x="1250" y="421.18" as="sourcePoint" />
            <mxPoint x="1190" y="330" as="targetPoint" />
          </mxGeometry>
        </mxCell>
        <mxCell id="DiLmOGWspINHebZNxaiX-38" value="Fecha" style="ellipse;whiteSpace=wrap;html=1;" vertex="1" parent="1">
          <mxGeometry x="750" y="410" width="60" height="40" as="geometry" />
        </mxCell>
        <mxCell id="DiLmOGWspINHebZNxaiX-41" value="Monto" style="ellipse;whiteSpace=wrap;html=1;dashed=1;" vertex="1" parent="1">
          <mxGeometry x="580" y="340" width="60" height="40" as="geometry" />
        </mxCell>
        <mxCell id="DiLmOGWspINHebZNxaiX-47" value="Cantidad" style="ellipse;whiteSpace=wrap;html=1;" vertex="1" parent="1">
          <mxGeometry x="650" y="410" width="60" height="40" as="geometry" />
        </mxCell>
        <mxCell id="DiLmOGWspINHebZNxaiX-48" value="" style="endArrow=none;html=1;rounded=0;exitX=0.5;exitY=0;exitDx=0;exitDy=0;" edge="1" parent="1" source="DiLmOGWspINHebZNxaiX-47" target="DiLmOGWspINHebZNxaiX-6">
          <mxGeometry width="50" height="50" relative="1" as="geometry">
            <mxPoint x="620" y="420" as="sourcePoint" />
            <mxPoint x="670" y="370" as="targetPoint" />
          </mxGeometry>
        </mxCell>
        <mxCell id="DiLmOGWspINHebZNxaiX-49" value="" style="endArrow=none;html=1;rounded=0;exitX=0;exitY=0;exitDx=0;exitDy=0;entryX=0.704;entryY=0.893;entryDx=0;entryDy=0;entryPerimeter=0;" edge="1" parent="1" source="DiLmOGWspINHebZNxaiX-38" target="DiLmOGWspINHebZNxaiX-6">
          <mxGeometry width="50" height="50" relative="1" as="geometry">
            <mxPoint x="724" y="410" as="sourcePoint" />
            <mxPoint x="750" y="330" as="targetPoint" />
          </mxGeometry>
        </mxCell>
        <mxCell id="DiLmOGWspINHebZNxaiX-50" value="" style="endArrow=none;html=1;rounded=0;exitX=0;exitY=0;exitDx=0;exitDy=0;entryX=0.88;entryY=0.672;entryDx=0;entryDy=0;entryPerimeter=0;" edge="1" parent="1" source="DiLmOGWspINHebZNxaiX-28" target="DiLmOGWspINHebZNxaiX-6">
          <mxGeometry width="50" height="50" relative="1" as="geometry">
            <mxPoint x="769" y="426" as="sourcePoint" />
            <mxPoint x="743" y="341" as="targetPoint" />
          </mxGeometry>
        </mxCell>
        <mxCell id="DiLmOGWspINHebZNxaiX-51" value="" style="endArrow=none;html=1;rounded=0;exitX=1;exitY=0;exitDx=0;exitDy=0;entryX=0.072;entryY=0.657;entryDx=0;entryDy=0;entryPerimeter=0;" edge="1" parent="1" source="DiLmOGWspINHebZNxaiX-41" target="DiLmOGWspINHebZNxaiX-6">
          <mxGeometry width="50" height="50" relative="1" as="geometry">
            <mxPoint x="710" y="370" as="sourcePoint" />
            <mxPoint x="648" y="318" as="targetPoint" />
          </mxGeometry>
        </mxCell>
        <mxCell id="DiLmOGWspINHebZNxaiX-53" value="&lt;font style=&quot;font-size: 24px;&quot;&gt;(n:m)&lt;/font&gt;" style="text;html=1;strokeColor=none;fillColor=none;align=center;verticalAlign=middle;whiteSpace=wrap;rounded=0;" vertex="1" parent="1">
          <mxGeometry x="350" y="240" width="70" height="30" as="geometry" />
        </mxCell>
        <mxCell id="DiLmOGWspINHebZNxaiX-54" value="&lt;font style=&quot;font-size: 24px;&quot;&gt;(1:n)&lt;/font&gt;" style="text;html=1;strokeColor=none;fillColor=none;align=center;verticalAlign=middle;whiteSpace=wrap;rounded=0;" vertex="1" parent="1">
          <mxGeometry x="1045" y="240" width="70" height="30" as="geometry" />
        </mxCell>
        <mxCell id="DiLmOGWspINHebZNxaiX-55" value="&lt;font style=&quot;font-size: 24px;&quot;&gt;(M:N)&lt;/font&gt;" style="text;html=1;strokeColor=none;fillColor=none;align=center;verticalAlign=middle;whiteSpace=wrap;rounded=0;" vertex="1" parent="1">
          <mxGeometry x="680" y="220" width="70" height="30" as="geometry" />
        </mxCell>
      </root>
    </mxGraphModel>
  </diagram>
</mxfile>
